<svg width="547" height="480" viewBox="0 0 547 480" fill="none" xmlns="http://www.w3.org/2000/svg">
<g clip-path="url(#clip0_2288_4686)">
<path d="M476.047 462.629V415.062C476.047 415.062 494.584 448.785 476.047 462.629Z" fill="#F1F1F1"/>
<path d="M477.193 462.621L442.152 430.453C442.152 430.453 479.531 439.603 477.193 462.621Z" fill="#F1F1F1"/>
<path d="M70.0005 462.629V415.062C70.0005 415.062 51.4632 448.785 70.0005 462.629Z" fill="#F1F1F1"/>
<path d="M68.8553 462.621L103.896 430.453C103.896 430.453 66.5173 439.603 68.8553 462.621Z" fill="#F1F1F1"/>
<path d="M388.449 109.842H385.91V40.2676C385.91 34.9795 384.868 29.7433 382.844 24.8578C380.821 19.9724 377.855 15.5333 374.116 11.7941C370.376 8.05492 365.937 5.08883 361.052 3.0652C356.166 1.04156 350.93 4.31758e-06 345.642 0H198.24C192.952 -1.12254e-05 187.716 1.04153 182.831 3.06515C177.945 5.08877 173.506 8.05484 169.767 11.794C166.028 15.5332 163.062 19.9723 161.038 24.8577C159.014 29.7432 157.973 34.9794 157.973 40.2674V421.956C157.973 432.635 162.215 442.878 169.767 450.429C177.318 457.981 187.561 462.223 198.24 462.223H345.642C356.322 462.223 366.564 457.981 374.115 450.429C381.667 442.878 385.91 432.636 385.91 421.956V159.365H388.449V109.842Z" fill="#3F3D56"/>
<path d="M347.265 10.4762H328.024C328.909 12.6455 329.247 14.9992 329.008 17.3298C328.769 19.6604 327.96 21.8965 326.653 23.841C325.347 25.7855 323.582 27.3788 321.514 28.4805C319.446 29.5823 317.139 30.1586 314.797 30.1588H230.352C228.009 30.1586 225.702 29.5823 223.635 28.4806C221.567 27.3788 219.802 25.7855 218.495 23.841C217.188 21.8965 216.38 19.6604 216.141 17.3298C215.902 14.9992 216.24 12.6455 217.124 10.4762H199.153C191.178 10.4762 183.529 13.6444 177.89 19.2839C172.25 24.9233 169.082 32.5721 169.082 40.5475V421.676C169.082 425.625 169.86 429.535 171.371 433.184C172.882 436.832 175.097 440.147 177.89 442.939C180.682 445.732 183.997 447.947 187.646 449.458C191.294 450.969 195.204 451.747 199.153 451.747H347.265C351.214 451.747 355.125 450.969 358.773 449.458C362.421 447.947 365.736 445.732 368.529 442.939C371.321 440.147 373.536 436.832 375.047 433.184C376.559 429.535 377.336 425.625 377.336 421.676V40.5475C377.336 36.5985 376.559 32.6881 375.047 29.0397C373.536 25.3913 371.321 22.0763 368.529 19.2839C365.736 16.4915 362.421 14.2765 358.773 12.7652C355.125 11.254 351.214 10.4762 347.265 10.4762Z" fill="white"/>
<path d="M343.556 445.203H202.865C186.699 445.203 173.547 433.464 173.547 419.036V400.091C173.547 388.591 184.021 379.235 196.895 379.235H349.526C362.4 379.235 372.874 388.591 372.874 400.091V419.036C372.874 433.464 359.722 445.203 343.556 445.203Z" fill="#E5E5E5"/>
<path d="M217.652 126.804H186.269C185.707 126.803 185.168 126.58 184.77 126.182C184.373 125.785 184.149 125.246 184.148 124.684V93.3006C184.149 92.7384 184.373 92.1995 184.77 91.802C185.168 91.4044 185.707 91.1808 186.269 91.1801H217.652C218.214 91.1808 218.753 91.4044 219.151 91.802C219.548 92.1995 219.772 92.7384 219.772 93.3006V124.684C219.772 125.246 219.548 125.785 219.151 126.182C218.753 126.58 218.214 126.803 217.652 126.804Z" fill="#EEA300"/>
<path d="M265.152 126.804H233.769C233.207 126.803 232.668 126.58 232.27 126.182C231.873 125.785 231.649 125.246 231.648 124.684V93.3006C231.649 92.7384 231.873 92.1995 232.27 91.8019C232.668 91.4044 233.207 91.1808 233.769 91.1801H265.152C265.714 91.1808 266.253 91.4044 266.65 91.8019C267.048 92.1995 267.272 92.7384 267.272 93.3006V124.684C267.272 125.246 267.048 125.785 266.65 126.182C266.253 126.58 265.714 126.803 265.152 126.804Z" fill="#E5E5E5"/>
<path d="M312.652 126.804H281.269C280.707 126.803 280.168 126.58 279.77 126.182C279.373 125.785 279.149 125.246 279.148 124.684V93.3006C279.149 92.7384 279.373 92.1995 279.77 91.8019C280.168 91.4044 280.707 91.1808 281.269 91.1801H312.652C313.214 91.1808 313.753 91.4044 314.15 91.8019C314.548 92.1995 314.772 92.7384 314.772 93.3006V124.684C314.772 125.246 314.548 125.785 314.15 126.182C313.753 126.58 313.214 126.803 312.652 126.804Z" fill="#E5E5E5"/>
<path d="M360.148 126.804H328.765C328.203 126.803 327.664 126.58 327.266 126.182C326.869 125.785 326.645 125.246 326.645 124.684V93.3006C326.645 92.7384 326.869 92.1995 327.266 91.802C327.664 91.4044 328.203 91.1808 328.765 91.1801H360.148C360.71 91.1808 361.249 91.4044 361.647 91.802C362.044 92.1995 362.268 92.7384 362.268 93.3006V124.684C362.268 125.246 362.044 125.785 361.647 126.182C361.249 126.58 360.71 126.803 360.148 126.804Z" fill="#E5E5E5"/>
<path d="M217.542 184.905H186.16C185.597 184.904 185.058 184.681 184.661 184.283C184.263 183.885 184.04 183.347 184.039 182.784V151.401C184.04 150.839 184.263 150.3 184.661 149.903C185.058 149.505 185.597 149.282 186.16 149.281H217.542C218.105 149.282 218.644 149.505 219.041 149.903C219.439 150.3 219.662 150.839 219.663 151.401V182.784C219.662 183.347 219.439 183.885 219.041 184.283C218.644 184.681 218.105 184.904 217.542 184.905Z" fill="#E5E5E5"/>
<path d="M265.039 184.905H233.656C233.093 184.904 232.554 184.681 232.157 184.283C231.759 183.885 231.536 183.347 231.535 182.784V151.401C231.536 150.839 231.759 150.3 232.157 149.903C232.554 149.505 233.093 149.282 233.656 149.281H265.039C265.601 149.282 266.14 149.505 266.537 149.903C266.935 150.3 267.158 150.839 267.159 151.401V182.784C267.158 183.347 266.935 183.885 266.537 184.283C266.14 184.681 265.601 184.904 265.039 184.905Z" fill="#E5E5E5"/>
<path d="M312.539 184.905H281.156C280.593 184.904 280.054 184.681 279.657 184.283C279.259 183.885 279.036 183.347 279.035 182.784V151.401C279.036 150.839 279.259 150.3 279.657 149.903C280.054 149.505 280.593 149.282 281.156 149.281H312.539C313.101 149.282 313.64 149.505 314.037 149.903C314.435 150.3 314.658 150.839 314.659 151.401V182.784C314.658 183.347 314.435 183.885 314.037 184.283C313.64 184.681 313.101 184.904 312.539 184.905Z" fill="#EEA300"/>
<path d="M360.035 184.905H328.652C328.09 184.904 327.551 184.681 327.153 184.283C326.756 183.885 326.532 183.347 326.531 182.784V151.401C326.532 150.839 326.756 150.3 327.153 149.903C327.551 149.505 328.09 149.282 328.652 149.281H360.035C360.597 149.282 361.136 149.505 361.533 149.903C361.931 150.3 362.154 150.839 362.155 151.401V182.784C362.154 183.347 361.931 183.885 361.533 184.283C361.136 184.681 360.597 184.904 360.035 184.905Z" fill="#EEA300"/>
<path d="M217.429 243.006H186.046C185.484 243.005 184.945 242.781 184.548 242.384C184.15 241.986 183.926 241.447 183.926 240.885V209.502C183.926 208.94 184.15 208.401 184.548 208.004C184.945 207.606 185.484 207.382 186.046 207.382H217.429C217.991 207.382 218.53 207.606 218.928 208.004C219.325 208.401 219.549 208.94 219.55 209.502V240.885C219.549 241.447 219.325 241.986 218.928 242.384C218.53 242.781 217.991 243.005 217.429 243.006Z" fill="#E5E5E5"/>
<path d="M264.925 243.006H233.542C232.98 243.005 232.441 242.781 232.044 242.384C231.646 241.986 231.423 241.447 231.422 240.885V209.502C231.423 208.94 231.646 208.401 232.044 208.004C232.441 207.606 232.98 207.382 233.542 207.382H264.925C265.487 207.382 266.026 207.606 266.424 208.004C266.821 208.401 267.045 208.94 267.046 209.502V240.885C267.045 241.447 266.821 241.986 266.424 242.384C266.026 242.781 265.487 243.005 264.925 243.006Z" fill="#E5E5E5"/>
<path d="M312.425 243.006H281.042C280.48 243.005 279.941 242.781 279.544 242.384C279.146 241.986 278.923 241.447 278.922 240.885V209.502C278.923 208.94 279.146 208.401 279.544 208.004C279.941 207.606 280.48 207.382 281.042 207.382H312.425C312.987 207.382 313.526 207.606 313.924 208.004C314.321 208.401 314.545 208.94 314.546 209.502V240.885C314.545 241.447 314.321 241.986 313.924 242.384C313.526 242.781 312.987 243.005 312.425 243.006Z" fill="#E5E5E5"/>
<path d="M359.925 243.006H328.542C327.98 243.005 327.441 242.781 327.044 242.384C326.646 241.986 326.423 241.447 326.422 240.885V209.502C326.423 208.94 326.646 208.401 327.044 208.004C327.441 207.606 327.98 207.382 328.542 207.382H359.925C360.487 207.382 361.026 207.606 361.424 208.004C361.821 208.401 362.045 208.94 362.046 209.502V240.885C362.045 241.447 361.821 241.986 361.424 242.384C361.026 242.781 360.487 243.005 359.925 243.006Z" fill="#E5E5E5"/>
<path d="M217.316 301.106H185.933C185.371 301.106 184.832 300.882 184.434 300.485C184.037 300.087 183.813 299.548 183.812 298.986V267.603C183.813 267.041 184.037 266.502 184.434 266.104C184.832 265.707 185.371 265.483 185.933 265.483H217.316C217.878 265.483 218.417 265.707 218.815 266.104C219.212 266.502 219.436 267.041 219.436 267.603V298.986C219.436 299.548 219.212 300.087 218.815 300.485C218.417 300.882 217.878 301.106 217.316 301.106Z" fill="#E5E5E5"/>
<path d="M264.816 301.106H233.433C232.871 301.106 232.332 300.882 231.934 300.485C231.537 300.087 231.313 299.548 231.312 298.986V267.603C231.313 267.041 231.537 266.502 231.934 266.104C232.332 265.707 232.871 265.483 233.433 265.483H264.816C265.378 265.483 265.917 265.707 266.315 266.104C266.712 266.502 266.936 267.041 266.936 267.603V298.986C266.936 299.548 266.712 300.087 266.315 300.485C265.917 300.882 265.378 301.106 264.816 301.106Z" fill="#E5E5E5"/>
<path d="M312.312 301.106H280.929C280.367 301.106 279.828 300.882 279.43 300.485C279.033 300.087 278.809 299.548 278.809 298.986V267.603C278.809 267.041 279.033 266.502 279.43 266.104C279.828 265.707 280.367 265.483 280.929 265.483H312.312C312.874 265.483 313.413 265.707 313.811 266.104C314.208 266.502 314.432 267.041 314.432 267.603V298.986C314.432 299.548 314.208 300.087 313.811 300.485C313.413 300.882 312.874 301.106 312.312 301.106Z" fill="#E5E5E5"/>
<path d="M359.812 301.106H328.429C327.867 301.106 327.328 300.882 326.93 300.485C326.533 300.087 326.309 299.548 326.309 298.986V267.603C326.309 267.041 326.533 266.502 326.93 266.104C327.328 265.707 327.867 265.483 328.429 265.483H359.812C360.374 265.483 360.913 265.707 361.311 266.104C361.708 266.502 361.932 267.041 361.933 267.603V298.986C361.932 299.548 361.708 300.087 361.311 300.485C360.913 300.882 360.374 301.106 359.812 301.106Z" fill="#E5E5E5"/>
<path d="M217.652 430.879H186.269C185.707 430.878 185.168 430.655 184.77 430.257C184.373 429.86 184.149 429.321 184.148 428.759V397.376C184.149 396.814 184.373 396.275 184.77 395.877C185.168 395.48 185.707 395.256 186.269 395.255H217.652C218.214 395.256 218.753 395.48 219.151 395.877C219.548 396.275 219.772 396.814 219.772 397.376V428.759C219.772 429.321 219.548 429.86 219.151 430.257C218.753 430.655 218.214 430.878 217.652 430.879Z" fill="white"/>
<path d="M265.152 430.879H233.769C233.207 430.878 232.668 430.655 232.27 430.257C231.873 429.86 231.649 429.321 231.648 428.759V397.376C231.649 396.814 231.873 396.275 232.27 395.877C232.668 395.48 233.207 395.256 233.769 395.255H265.152C265.714 395.256 266.253 395.48 266.65 395.877C267.048 396.275 267.272 396.814 267.272 397.376V428.759C267.272 429.321 267.048 429.86 266.65 430.257C266.253 430.655 265.714 430.878 265.152 430.879Z" fill="white"/>
<path d="M312.652 430.879H281.269C280.707 430.878 280.168 430.655 279.77 430.257C279.373 429.86 279.149 429.321 279.148 428.759V397.376C279.149 396.814 279.373 396.275 279.77 395.877C280.168 395.48 280.707 395.256 281.269 395.255H312.652C313.214 395.256 313.753 395.48 314.15 395.877C314.548 396.275 314.772 396.814 314.772 397.376V428.759C314.772 429.321 314.548 429.86 314.15 430.257C313.753 430.655 313.214 430.878 312.652 430.879Z" fill="white"/>
<path d="M360.148 430.879H328.765C328.203 430.878 327.664 430.655 327.266 430.257C326.869 429.86 326.645 429.321 326.645 428.759V397.376C326.645 396.814 326.869 396.275 327.266 395.877C327.664 395.48 328.203 395.256 328.765 395.255H360.148C360.71 395.256 361.249 395.48 361.647 395.877C362.044 396.275 362.268 396.814 362.268 397.376V428.759C362.268 429.321 362.044 429.86 361.647 430.257C361.249 430.655 360.71 430.878 360.148 430.879Z" fill="white"/>
<path d="M257.831 364.721C260.173 364.721 262.072 362.822 262.072 360.48C262.072 358.137 260.173 356.239 257.831 356.239C255.489 356.239 253.59 358.137 253.59 360.48C253.59 362.822 255.489 364.721 257.831 364.721Z" fill="#E5E5E5"/>
<path d="M273.096 364.721C275.439 364.721 277.337 362.822 277.337 360.48C277.337 358.137 275.439 356.239 273.096 356.239C270.754 356.239 268.855 358.137 268.855 360.48C268.855 362.822 270.754 364.721 273.096 364.721Z" fill="#E5E5E5"/>
<path d="M288.366 364.721C290.708 364.721 292.607 362.822 292.607 360.48C292.607 358.137 290.708 356.239 288.366 356.239C286.024 356.239 284.125 358.137 284.125 360.48C284.125 362.822 286.024 364.721 288.366 364.721Z" fill="#E5E5E5"/>
<path d="M545.761 462.911H0.657544C0.483152 462.911 0.315903 462.842 0.19259 462.718C0.0692762 462.595 0 462.428 0 462.253C0 462.079 0.0692762 461.912 0.19259 461.788C0.315903 461.665 0.483152 461.596 0.657544 461.596H545.761C545.936 461.596 546.103 461.665 546.226 461.788C546.35 461.912 546.419 462.079 546.419 462.253C546.419 462.428 546.35 462.595 546.226 462.718C546.103 462.842 545.936 462.911 545.761 462.911Z" fill="#CBCBCB"/>
<path d="M214.597 333.442C215.484 332.555 216.166 331.484 216.595 330.305C217.024 329.127 217.189 327.868 217.078 326.619C216.968 325.369 216.585 324.159 215.957 323.073C215.328 321.988 214.469 321.053 213.44 320.336L221.722 290.99L206.622 295.792L201.072 322.923C199.981 324.731 199.592 326.877 199.977 328.954C200.362 331.03 201.496 332.893 203.163 334.19C204.83 335.486 206.915 336.126 209.022 335.988C211.13 335.85 213.113 334.944 214.597 333.442Z" fill="#FFB7B7"/>
<path d="M218.891 315.454C218.621 315.506 218.347 315.529 218.072 315.524L203.587 315.233C203.042 315.222 202.505 315.096 202.013 314.861C201.521 314.627 201.084 314.29 200.732 313.874C200.38 313.457 200.121 312.971 199.971 312.446C199.822 311.922 199.786 311.372 199.866 310.832L214.56 211.549C214.999 208.678 216.45 206.058 218.652 204.162C220.853 202.267 223.66 201.222 226.565 201.215C228.399 201.22 230.209 201.641 231.856 202.447C233.504 203.253 234.947 204.423 236.076 205.869C237.205 207.315 237.991 208.998 238.374 210.792C238.758 212.585 238.729 214.443 238.289 216.224L227.873 258.409L221.966 312.105C221.881 312.919 221.536 313.684 220.982 314.287C220.428 314.891 219.695 315.3 218.891 315.454Z" fill="#3F3D56"/>
<path d="M224.951 472.186H233.012L236.847 441.092L224.949 441.092L224.951 472.186Z" fill="#FFB7B7"/>
<path d="M222.895 469.554L238.77 469.553H238.771C241.454 469.553 244.027 470.619 245.925 472.517C247.822 474.414 248.888 476.987 248.888 479.67V479.999L222.895 480L222.895 469.554Z" fill="#2F2E41"/>
<path d="M259.324 469.567L267.335 470.465L274.612 439.993L262.788 438.667L259.324 469.567Z" fill="#FFB7B7"/>
<path d="M257.574 466.723L273.351 468.492C276.017 468.791 278.456 470.137 280.13 472.234C281.804 474.331 282.577 477.007 282.278 479.673L282.242 480L256.41 477.104L257.574 466.723Z" fill="#2F2E41"/>
<path d="M217.385 299.153C217.385 299.153 206.333 323.619 216.093 339.511L221.907 463.24H235.257L248.209 363.293L271.223 392.882L257.202 461.943L273.53 462.859L296.21 392.882C296.21 392.882 278.786 315.721 273.032 313.863L269.25 296.224L217.385 299.153Z" fill="#2F2E41"/>
<path d="M212.466 320.633C212.466 320.633 202.509 332.06 228.811 336.005C255.113 339.95 282.73 334.032 283.387 326.142C284.045 318.251 212.466 320.633 212.466 320.633Z" fill="#CBCBCB"/>
<path d="M344.314 178.887C344.273 180.002 343.988 181.095 343.48 182.089C342.971 183.082 342.25 183.952 341.369 184.637C340.488 185.322 339.467 185.805 338.378 186.053C337.29 186.3 336.161 186.306 335.07 186.07L325.128 200.408L314.941 196.491L329.266 176.441C329.784 174.635 330.946 173.081 332.533 172.075C334.12 171.068 336.021 170.679 337.876 170.98C339.731 171.282 341.411 172.253 342.597 173.71C343.784 175.167 344.395 177.009 344.314 178.887Z" fill="#FFB7B7"/>
<path d="M260.233 197.333L246.177 190.974L228.167 192.262C228.167 192.262 206.454 217.647 215.003 241.976L209.742 326.799C243.277 336.005 258.521 318.739 282.73 326.142L275.252 231.87L260.233 197.333Z" fill="#3F3D56"/>
<path d="M250.836 203.51L260.231 197.333C260.231 197.333 273.28 195.361 278.497 200.422C278.497 200.422 296.202 201.903 300.478 206.323L305.187 207.384L320.827 187.131L330.399 192.332L316.59 229.812L275.249 231.87L250.836 203.51Z" fill="#3F3D56"/>
<path d="M254.08 183.841C264.833 177.963 268.784 164.481 262.906 153.728C257.028 142.975 243.547 139.024 232.794 144.902C222.041 150.78 218.089 164.261 223.967 175.014C229.845 185.767 243.327 189.719 254.08 183.841Z" fill="#FFB7B7"/>
<path d="M224.244 147.024C228.205 139.9 233.154 135.288 241.303 135.454C249.452 135.621 256.501 135.298 260.167 142.578C261.136 140.763 261.622 138.73 261.576 136.674C262.683 137.392 263.556 138.419 264.086 139.628C264.617 140.837 264.782 142.174 264.561 143.476C265.274 143.058 265.871 142.468 266.297 141.76C266.723 141.051 266.964 140.248 266.999 139.422C269.719 140.327 270.426 144.16 269.05 146.674C267.674 149.188 264.975 150.642 262.385 151.871C259.796 153.1 260.991 159.601 259.301 161.915C258.12 163.53 257.581 165.51 256.786 167.345C256.752 167.418 256.696 167.477 256.625 167.513C254.801 168.53 253.651 170.346 253.972 172.409C254.011 172.563 254.002 172.726 253.947 172.875C251.638 177.224 249.147 181.773 244.963 184.368C241.606 186.395 237.585 187.017 233.773 186.098C229.496 185.075 225.8 182.24 223.134 178.743C220.468 175.247 218.753 171.114 217.465 166.911C216.322 163.181 215.491 159.194 216.397 155.4C217.303 151.607 220.373 148.094 224.262 147.801" fill="#2F2E41"/>
</g>
<defs>
<clipPath id="clip0_2288_4686">
<rect width="546.419" height="480" fill="white"/>
</clipPath>
</defs>
</svg>
