<svg width="19" height="23" viewBox="0 0 19 23" fill="none" xmlns="http://www.w3.org/2000/svg">
<path d="M10.2992 10.6427H15.9038V12.607H10.2992V10.6427ZM10.2992 7.36889H15.9038V9.33317H10.2992V7.36889ZM10.2992 13.9165H15.9038V15.8808H10.2992V13.9165ZM16.7045 0.166504H2.29271C1.86802 0.166504 1.46072 0.442438 1.16042 0.933605C0.860115 1.42477 0.691406 2.09094 0.691406 2.78555V19.8094C0.691406 20.504 0.860115 21.1701 1.16042 21.6613C1.46072 22.1525 1.86802 22.4284 2.29271 22.4284H16.7045C17.1292 22.4284 17.5365 22.1525 17.8368 21.6613C18.1371 21.1701 18.3058 20.504 18.3058 19.8094V2.78555C18.3058 2.09094 18.1371 1.42477 17.8368 0.933605C17.5365 0.442438 17.1292 0.166504 16.7045 0.166504ZM16.7045 19.8094H9.4986V2.78555H16.7045" fill="#FFFFFF"/>
</svg>
